<mxfile host="app.diagrams.net" modified="2024-07-06T07:59:24.514Z" agent="Mozilla/5.0 (Windows NT 10.0; Win64; x64) AppleWebKit/537.36 (KHTML, like Gecko) Chrome/126.0.0.0 Safari/537.36" etag="RCPXFDhmva5Gj3zJiWyy" version="24.6.4" type="github">
  <diagram name="Page-1" id="A-SBNeHp7N-ROw1TiE_Y">
    <mxGraphModel dx="736" dy="396" grid="1" gridSize="10" guides="1" tooltips="1" connect="1" arrows="1" fold="1" page="1" pageScale="1" pageWidth="827" pageHeight="1169" math="0" shadow="0">
      <root>
        <mxCell id="0" />
        <mxCell id="1" parent="0" />
        <mxCell id="eGYDbwZQbxpPVk4bOuxP-2" value="" style="rounded=0;whiteSpace=wrap;html=1;" vertex="1" parent="1">
          <mxGeometry x="310" y="360" width="164" height="200" as="geometry" />
        </mxCell>
        <mxCell id="eGYDbwZQbxpPVk4bOuxP-3" value="" style="rounded=0;whiteSpace=wrap;html=1;" vertex="1" parent="1">
          <mxGeometry x="474" y="420" width="46" height="140" as="geometry" />
        </mxCell>
        <mxCell id="eGYDbwZQbxpPVk4bOuxP-5" value="117" style="text;html=1;align=center;verticalAlign=middle;resizable=0;points=[];autosize=1;strokeColor=none;fillColor=none;" vertex="1" parent="1">
          <mxGeometry x="477" y="555" width="40" height="30" as="geometry" />
        </mxCell>
        <mxCell id="eGYDbwZQbxpPVk4bOuxP-6" value="312" style="text;html=1;align=center;verticalAlign=middle;resizable=0;points=[];autosize=1;strokeColor=none;fillColor=none;" vertex="1" parent="1">
          <mxGeometry x="474" y="370" width="40" height="30" as="geometry" />
        </mxCell>
        <mxCell id="eGYDbwZQbxpPVk4bOuxP-7" value="490" style="text;html=1;align=center;verticalAlign=middle;resizable=0;points=[];autosize=1;strokeColor=none;fillColor=none;" vertex="1" parent="1">
          <mxGeometry x="520" y="490" width="40" height="30" as="geometry" />
        </mxCell>
        <mxCell id="eGYDbwZQbxpPVk4bOuxP-8" value="600" style="text;html=1;align=center;verticalAlign=middle;resizable=0;points=[];autosize=1;strokeColor=none;fillColor=none;" vertex="1" parent="1">
          <mxGeometry x="374" y="555" width="40" height="30" as="geometry" />
        </mxCell>
      </root>
    </mxGraphModel>
  </diagram>
</mxfile>
